<svg width="107" height="46" viewBox="0 0 107 46" fill="none" xmlns="http://www.w3.org/2000/svg">
<path d="M18.3379 3.34683C18.1348 3.34699 17.9207 3.34717 17.72 3.37112C15.3868 3.56575 13.2427 4.55687 11.7159 6.36248C10.0542 8.32743 9.65238 10.3977 9.67185 12.8993L5.22674 12.8925C5.02763 12.8923 4.82181 12.8866 4.61308 12.8808C4.03313 12.8648 3.43073 12.8481 2.88746 12.9476C2.55983 13.0077 2.27394 13.167 2.04353 13.4069C1.64013 13.8268 1.63033 14.3573 1.65654 14.9007C1.69788 15.7575 1.77147 16.6155 1.84498 17.4725C1.88497 17.9387 1.92496 18.405 1.95971 18.8705L2.6975 28.4036L3.05647 33.0073C3.07416 33.2346 3.08828 33.4641 3.10246 33.6945C3.15316 34.5184 3.2046 35.3544 3.42211 36.1426C3.79787 37.4828 4.54258 38.6904 5.57139 39.6284C6.47051 40.4448 7.55729 41.0273 8.73536 41.3236C9.7318 41.5641 10.8894 41.5369 11.9768 41.5113C12.3005 41.5037 12.6179 41.4963 12.923 41.4961L18.9072 41.4942L24.1335 41.4965C24.419 41.4965 24.7129 41.5035 25.0104 41.5106C25.9758 41.5335 26.982 41.5574 27.8841 41.3472C29.1531 41.0518 30.4374 40.3551 31.3638 39.4365C32.226 38.5813 32.9148 37.4394 33.2158 36.2596C33.4462 35.357 33.5039 34.367 33.56 33.4067C33.578 33.0971 33.5959 32.7904 33.6194 32.4909L34.1099 26.1771L34.7215 18.4247C34.7511 18.0418 34.7894 17.6548 34.8278 17.267C34.911 16.4264 34.9948 15.5795 34.9929 14.7488C34.992 14.2378 34.8838 13.7611 34.5176 13.3817C34.2657 13.1202 33.8538 12.9925 33.5052 12.9356C32.9827 12.8505 32.4098 12.8656 31.8555 12.8803C31.6506 12.8858 31.4483 12.8911 31.2519 12.8913C29.854 12.8886 28.4555 12.8936 27.0575 12.9061L26.9974 12.907C27.0302 10.228 26.4339 7.92926 24.5079 5.96998C22.8987 4.30256 20.6842 3.35651 18.3672 3.3468L18.3379 3.34683ZM26.8102 18.6274L26.8855 18.6318C26.8875 18.6369 26.8894 18.6416 26.8912 18.6461C26.8921 18.6484 26.893 18.6506 26.8939 18.6528C26.8972 18.6608 26.9002 18.6677 26.9028 18.6737L26.906 18.6809C26.9197 18.7122 26.9223 18.7179 26.9216 18.7683C26.8975 22.0532 26.0183 26.2825 23.6869 28.6883C21.5279 30.9161 18.1753 32.0093 15.118 32.0699C16.542 29.3915 18.8304 26.8514 21.1909 24.9648C21.556 24.6733 21.9381 24.4098 22.3205 24.1461C22.5667 23.9763 22.813 23.8065 23.0549 23.6291C23.2898 23.4567 23.606 23.2229 23.6393 22.9086C23.6698 22.6192 23.5158 22.3946 23.3346 22.1878C23.0808 22.0407 22.895 21.9793 22.6051 22.0643C22.1936 22.1851 21.7789 22.4896 21.4047 22.7644C21.3055 22.8372 21.2091 22.9079 21.1165 22.9726C18.0898 25.1158 15.5749 27.902 13.7518 31.1314C13.6903 28.504 14.2886 26.303 15.9 24.1895C18.3182 21.0178 22.9467 19.1538 26.8102 18.6274ZM3.31476 14.5379L33.3434 14.5375C33.2368 15.5488 33.1678 16.5694 33.0989 17.5884C33.0605 18.1561 33.0221 18.7238 32.9772 19.2889L32.1687 29.4211L31.8663 33.1548C31.8529 33.3169 31.8406 33.4798 31.8283 33.6431C31.7798 34.2873 31.7308 34.9373 31.6065 35.568C31.4789 36.2152 31.2311 36.7778 30.8955 37.3423C30.7661 37.5388 30.6255 37.7278 30.4748 37.9086C29.6043 38.9488 28.1753 39.7236 26.818 39.8262C26.0789 39.882 25.3185 39.8681 24.5651 39.8542C24.2391 39.8482 23.9143 39.8422 23.593 39.8419L17.3631 39.8401L12.4056 39.8424C12.1664 39.8425 11.9231 39.8475 11.6779 39.8526C10.926 39.8682 10.1562 39.8841 9.43357 39.7597C8.48576 39.5942 7.6 39.1767 6.86961 38.5507C5.99471 37.8129 5.36681 36.825 5.07057 35.7196C4.86791 34.9869 4.81738 34.2063 4.76776 33.4398C4.7553 33.2473 4.74289 33.0556 4.72815 32.8658L4.43329 29.0668L3.31476 14.5379ZM27.477 16.8669L27.4546 16.8693C22.8964 17.3966 17.707 19.2715 14.7607 22.9639C12.8669 25.337 11.8323 28.4237 12.174 31.4633C12.249 32.1308 12.4002 32.7688 12.6181 33.4035C12.5934 33.4665 12.5634 33.5421 12.5291 33.6281C12.1551 34.5683 11.2855 36.7537 11.5879 37.4001C11.6754 37.5868 11.8536 37.7121 12.0468 37.7736C12.1264 37.7986 12.2066 37.8129 12.2894 37.8226C12.5448 37.7805 12.7808 37.7278 12.9345 37.4995C13.0996 37.2537 13.2686 36.6635 13.4132 36.1587C13.4821 35.9182 13.5454 35.697 13.6002 35.5416C13.7874 35.0096 14.0001 34.4864 14.2124 33.9639L14.2149 33.9577C14.2398 33.8966 14.2646 33.8354 14.2894 33.7743C18.0482 33.7854 22.0628 32.6088 24.7821 29.9258C27.8231 26.9247 28.5891 22.0854 28.5951 17.9901C28.5956 17.6672 28.5734 17.2841 28.3372 17.0371C28.192 16.8852 27.9733 16.8394 27.7704 16.8439C27.6725 16.8461 27.5745 16.8565 27.477 16.8669ZM17.9724 4.98921C18.118 4.9802 18.2641 4.97206 18.4097 4.97308C20.1952 4.98561 21.9829 5.78414 23.2375 7.04243C24.9457 8.75576 25.2952 10.5739 25.2989 12.8994L18.7574 12.8958L11.3964 12.905C11.3401 10.9061 11.6621 9.08029 12.9735 7.50191C14.2333 5.98561 16.0313 5.16262 17.9724 4.98921Z" fill="#030A06"/>
<path d="M26.8855 18.6318L26.8102 18.6274C22.9467 19.1538 18.3182 21.0178 15.9 24.1895C14.2886 26.303 13.6903 28.504 13.7518 31.1314C15.5749 27.902 18.0898 25.1158 21.1165 22.9726C21.2091 22.9079 21.3055 22.8372 21.4047 22.7644C21.7789 22.4896 22.1936 22.1851 22.6051 22.0643C22.895 21.9793 23.0808 22.0407 23.3346 22.1878C23.5158 22.3946 23.6698 22.6192 23.6393 22.9086C23.606 23.2229 23.2898 23.4567 23.0549 23.6291C22.813 23.8065 22.5667 23.9764 22.3205 24.1461C21.9381 24.4098 21.556 24.6733 21.1909 24.9648C18.8304 26.8514 16.542 29.3915 15.118 32.0699C18.1753 32.0093 21.5279 30.9161 23.6869 28.6883C26.0183 26.2825 26.8975 22.0533 26.9216 18.7683C26.9223 18.7179 26.9197 18.7122 26.906 18.6809C26.9027 18.6734 26.8986 18.6642 26.8939 18.6528C26.8913 18.6465 26.8886 18.6396 26.8855 18.6318ZM27.4546 16.8693L27.477 16.8669C27.5745 16.8565 27.6724 16.8461 27.7704 16.8439C27.9733 16.8394 28.192 16.8852 28.3372 17.0371C28.5734 17.2841 28.5956 17.6672 28.5951 17.9901C28.5891 22.0854 27.8231 26.9247 24.7821 29.9258C22.0628 32.6088 18.0482 33.7854 14.2894 33.7743C14.2646 33.8354 14.2398 33.8966 14.2149 33.9578L14.2124 33.9639C14.0001 34.4864 13.7874 35.0096 13.6001 35.5416C13.5454 35.6971 13.4821 35.9182 13.4132 36.1587C13.2686 36.6635 13.0996 37.2537 12.9345 37.4995C12.7808 37.7278 12.5448 37.7806 12.2894 37.8226C12.2065 37.8129 12.1264 37.7986 12.0468 37.7736C11.8536 37.7121 11.6754 37.5868 11.5879 37.4001C11.2855 36.7537 12.155 34.5683 12.5291 33.6281C12.5634 33.5421 12.5934 33.4665 12.6181 33.4035C12.4002 32.7688 12.249 32.1308 12.174 31.4633C11.8323 28.4237 12.8669 25.337 14.7607 22.9639C17.707 19.2715 22.8964 17.3966 27.4546 16.8693Z" fill="#030A06"/>
<path d="M27.4771 16.8669L27.4548 16.8693C22.8965 17.3966 17.7072 19.2715 14.7608 22.9639C12.8671 25.337 11.8324 28.4237 12.1742 31.4633C12.2492 32.1308 12.4004 32.7688 12.6183 33.4035C12.5936 33.4665 12.5635 33.5421 12.5293 33.6281C12.1552 34.5683 11.2857 36.7537 11.5881 37.4001C11.6756 37.5868 11.8537 37.7121 12.0469 37.7736C12.1266 37.7986 12.2067 37.8129 12.2896 37.8226C12.5449 37.7806 12.781 37.7278 12.9347 37.4995C13.0998 37.2537 13.2687 36.6638 13.4133 36.159C13.4822 35.9184 13.5455 35.6971 13.6003 35.5416C13.7876 35.0096 14.0002 34.4864 14.2126 33.9639C14.2134 33.9618 14.2143 33.9598 14.2151 33.9578C14.2399 33.8966 14.2648 33.8354 14.2896 33.7743C18.0484 33.7854 22.063 32.6088 24.7822 29.9258C27.8232 26.9247 28.5893 22.0854 28.5953 17.9901C28.5957 17.6672 28.5736 17.2841 28.3373 17.0371C28.1922 16.8852 27.9735 16.8394 27.7705 16.8439C27.6726 16.8461 27.5747 16.8565 27.4771 16.8669ZM26.8103 18.6274L26.8857 18.6318C26.8887 18.6396 26.8915 18.6465 26.8941 18.6528C26.8988 18.6643 26.9028 18.6733 26.9061 18.6809C26.9199 18.7122 26.9224 18.7179 26.9217 18.7683C26.8977 22.0533 26.0184 26.2825 23.687 28.6883C21.5281 30.9161 18.1755 32.0093 15.1181 32.0699C16.5422 29.3915 18.8306 26.8514 21.1911 24.9648C21.5561 24.6733 21.9383 24.4098 22.3207 24.1461C22.5669 23.9764 22.8132 23.8065 23.0551 23.6291C23.2899 23.4567 23.6061 23.2229 23.6394 22.9086C23.6699 22.6192 23.516 22.3946 23.3348 22.1878C23.081 22.0407 22.8951 21.9793 22.6053 22.0643C22.1938 22.1851 21.7791 22.4896 21.4048 22.7644C21.3057 22.8372 21.2093 22.9079 21.1167 22.9726C18.09 25.1158 15.575 27.902 13.7519 31.1314C13.6905 28.504 14.2888 26.303 15.9002 24.1895C18.3184 21.0178 22.9469 19.1538 26.8103 18.6274Z" fill="#030A06"/>
<path d="M86.1697 27.9987C86.0557 24.77 83.3464 22.2453 80.1181 22.3587C76.8889 22.4717 74.3631 25.1821 74.4771 28.4108C74.5911 31.6401 77.3015 34.1653 80.5302 34.0513C83.759 33.9368 86.2837 31.227 86.1697 27.9987ZM80.3214 24.1139C81.2632 24.1521 82.0265 24.3785 82.7445 25.0144C83.6002 25.7716 84.0772 26.8656 84.1397 27.9987C84.2026 29.1329 83.8457 30.2826 83.0735 31.1274C82.368 31.8995 81.4881 32.2451 80.457 32.2967C79.5162 32.2869 78.74 32.1404 77.9978 31.523C77.1308 30.802 76.6408 29.7343 76.5485 28.6202C76.453 27.4618 76.7563 26.2642 77.5254 25.3755C78.2882 24.4945 79.1892 24.1913 80.3214 24.1139Z" fill="#030A06"/>
<path d="M69.9113 27.5144C69.5265 24.3037 66.6091 22.0152 63.3994 22.4062C60.1983 22.7961 57.9171 25.704 58.3009 28.906C58.6847 32.1079 61.5885 34.3943 64.7911 34.0168C68.0022 33.6377 70.2962 30.7246 69.9113 27.5144ZM63.5867 24.1613C64.5232 24.085 65.3718 24.1835 66.1627 24.7277C67.0508 25.3383 67.6093 26.2817 67.794 27.3354C68.0036 28.532 67.8065 29.8117 67.0866 30.8087C66.4564 31.6819 65.6689 32.1151 64.6198 32.2822C63.6615 32.3312 62.8149 32.2729 62.0078 31.702C61.1373 31.0887 60.5508 30.1505 60.3808 29.0994C60.1853 27.9399 60.4196 26.6056 61.1118 25.6411C61.72 24.7937 62.5693 24.3238 63.5867 24.1613Z" fill="#030A06"/>
<path d="M98.4338 22.3515C98.4049 22.3525 98.3766 22.3546 98.3477 22.3582C96.8752 22.532 95.5491 23.2448 94.6233 24.4136C93.567 25.7479 93.2044 27.4396 93.4128 29.1128C93.5835 30.5822 94.3355 31.9222 95.5006 32.8346C96.8808 33.9069 98.6309 34.1793 100.336 33.9461C101.323 33.811 102.806 33.3385 103.436 32.5174C103.614 32.2869 103.703 32.0053 103.662 31.7144C103.633 31.5101 103.544 31.3146 103.375 31.1893C103.182 31.0454 102.924 31.0274 102.695 31.0722C102.376 31.1344 102.09 31.3317 101.818 31.5188C101.761 31.5583 101.705 31.5972 101.649 31.6344C100.458 32.2533 99.1368 32.5442 97.8268 32.1198C96.8948 31.8129 96.1247 31.1439 95.6915 30.263C95.4655 29.8127 95.3531 29.3346 95.253 28.8441H100.873C101.107 28.8444 101.358 28.8524 101.616 28.8607C102.283 28.882 102.996 28.9049 103.584 28.7997C103.752 28.7698 103.912 28.6801 104.034 28.5614C104.31 28.2922 104.359 27.911 104.351 27.5433C104.319 26.1352 103.658 24.7462 102.634 23.7936C101.451 22.6934 100.024 22.2798 98.4338 22.3515ZM98.6071 24.1108C99.4602 24.0108 100.321 24.2284 101.024 24.723C101.864 25.3203 102.305 26.1682 102.482 27.1663C101.77 27.1749 101.056 27.1729 100.343 27.171C99.9867 27.17 99.6301 27.169 99.274 27.1694L95.3211 27.1745C95.5022 26.5664 95.7121 26.014 96.101 25.5044C96.7276 24.6838 97.5952 24.2439 98.6071 24.1108Z" fill="#030A06"/>
<path d="M67.1309 18.1717C69.2406 18.1217 71.3614 18.1681 73.4725 18.1645C74.6748 18.1624 76.2107 18.065 77.3779 18.1851C77.5657 18.2047 77.7153 18.2579 77.8581 18.3827C78.0613 18.5601 78.1965 18.8278 78.2037 19.0991C78.2099 19.3441 78.0598 19.6252 77.8829 19.7897C77.7478 19.9145 77.5868 19.9646 77.4089 19.9934C76.923 20.0718 76.3866 20.0259 75.8935 20.0254L73.2744 20.0208L73.2734 29.7411C73.277 30.5601 73.3807 32.3468 73.2574 33.0436C73.2187 33.2623 73.1393 33.4805 72.9887 33.6481C72.8267 33.8281 72.6034 33.9189 72.3631 33.924C72.1114 33.9297 71.8658 33.8745 71.6843 33.6914C71.4708 33.4774 71.3924 33.1622 71.3661 32.8698C71.3176 32.3303 71.3619 31.7593 71.3681 31.2172C71.3774 30.4152 71.3702 29.6127 71.3697 28.8106L71.3759 20.0192C70.5047 20.0234 67.4895 20.1621 66.8722 19.882C66.6466 19.7799 66.5051 19.6221 66.4232 19.3874C66.336 19.1378 66.3757 18.8716 66.5018 18.6426C66.6495 18.3744 66.8465 18.2594 67.1309 18.1717Z" fill="#030A06"/>
<path d="M53.3318 22.3593C54.1154 22.3149 54.8811 22.365 55.642 22.5687C56.4454 22.7838 57.6741 23.2578 58.0894 24.0201C58.2036 24.23 58.2632 24.4812 58.1826 24.7133C58.1002 24.95 57.8754 25.1311 57.6488 25.2239C56.9881 25.4947 56.1608 24.5844 55.5392 24.3502C54.5283 23.969 53.3126 23.9902 52.3292 24.4492C51.4257 24.8711 50.776 25.6701 50.4397 26.5979C50.0492 27.6749 50.0163 29.0793 50.512 30.1289C50.9715 31.1017 51.8171 31.7815 52.8202 32.1358C53.968 32.5417 55.1639 32.3256 56.2365 31.8114C56.5688 31.6314 56.8707 31.3916 57.2494 31.3132C57.4451 31.2729 57.6383 31.2941 57.8051 31.4096C58.0105 31.552 58.1766 31.8336 58.2038 32.0822C58.2294 32.3153 58.1387 32.5299 57.9941 32.7089C57.3666 33.4866 55.9698 33.8776 55.0192 33.9942C53.3694 34.1963 51.6509 33.8657 50.3306 32.813C49.0895 31.8429 48.2998 30.4069 48.1453 28.8395C47.9818 27.2777 48.4397 25.7144 49.4201 24.4879C50.4139 23.266 51.7699 22.5264 53.3318 22.3593Z" fill="#030A06"/>
<path d="M88.5689 19.4075C88.6019 19.406 88.6344 19.4044 88.6668 19.4034C88.9593 19.3941 89.2533 19.4725 89.4601 19.6881C89.9532 20.2033 89.7572 21.9395 89.7515 22.6502C90.4231 22.6543 92.057 22.4454 92.5604 22.8931C92.7425 23.0556 92.8168 23.2805 92.8173 23.5203C92.8183 23.7529 92.758 23.9757 92.5852 24.1397C92.1148 24.5854 90.4164 24.41 89.7505 24.4059C89.7567 25.8336 89.5638 30.2342 90.0037 31.3173C90.715 33.0689 92.2566 31.5282 93.136 31.9424C93.3243 32.0311 93.4785 32.2183 93.5482 32.4133C93.6472 32.6908 93.559 32.9389 93.445 33.1937C93.4254 33.2153 93.4058 33.2365 93.3862 33.2576C92.8549 33.8111 91.8569 33.9441 91.124 33.9544C90.2735 33.9668 89.4694 33.8224 88.8412 33.1932C88.3873 32.7382 88.1052 32.1142 87.9669 31.4932C87.7534 30.5338 87.8416 29.4718 87.8421 28.4934L87.8447 24.4074C87.3289 24.4069 86.8126 24.4033 86.2969 24.3951C86.2118 24.3419 86.1287 24.2873 86.0539 24.2197C85.8502 24.0361 85.7574 23.7622 85.7501 23.4924C85.7439 23.2665 85.8131 23.0437 85.9817 22.8874C86.3985 22.5016 87.315 22.6399 87.8447 22.6492C87.8432 21.9059 87.6802 20.5732 87.9607 19.9192C88.0856 19.6288 88.2893 19.5236 88.5689 19.4075Z" fill="#030A06"/>
<path fill-rule="evenodd" clip-rule="evenodd" d="M47.6482 19.1292C46.7595 19.0418 42.4096 19.0728 40.9005 19.095C40.6231 19.099 40.3658 19.118 40.1398 19.1346C39.9475 19.1488 39.7779 19.1613 39.6379 19.1615C39.6379 19.1615 39.0373 19.3024 38.8426 19.573C38.7153 19.7501 38.6717 19.9749 38.6414 20.1865C38.4802 21.3102 38.3858 22.4567 38.2918 23.5993C38.2423 24.2007 38.1929 24.801 38.1338 25.3964L37.5615 31.1727C37.5464 31.327 37.5199 31.5378 37.49 31.7772C37.393 32.5508 37.2587 33.6225 37.3456 34.0491C37.3937 34.2855 37.5189 34.4808 37.728 34.604C37.9342 34.7256 38.1679 34.7947 38.4027 34.8346L38.4049 34.8345C38.8902 34.8336 39.622 34.8411 40.4397 34.8496C42.135 34.8671 46.4459 34.8885 47.4484 34.8454C47.6482 34.8366 47.8601 34.8196 48.0485 34.7484C48.3015 34.6525 48.5095 34.4694 48.6095 34.2146C48.7103 33.9582 48.688 33.671 48.5737 33.4234C48.4588 33.1738 48.3036 33.0407 48.0432 32.9571H39.3785C39.5231 31.6814 39.6523 30.4042 39.7662 29.1255L39.8686 28.086L39.8785 27.983C39.9462 27.9839 40.0353 27.9852 40.1413 27.9868C41.0238 28.0001 45.3191 28.0311 45.8664 27.9495C46.0673 27.9195 46.2549 27.869 46.4018 27.721C46.5921 27.5291 46.6711 27.264 46.6554 26.9979C46.642 26.7719 46.5421 26.5259 46.3704 26.3738C46.2557 26.2727 46.1137 26.2072 45.9621 26.186C45.4506 26.1116 41.6318 26.1318 40.6678 26.1441C40.4092 26.1475 40.1943 26.1502 40.0555 26.1504L40.4947 20.9684H45.1706C45.409 20.9686 45.6574 20.9765 45.9095 20.9846C46.5198 21.0042 47.1522 21.0244 47.7198 20.9365C47.9216 20.9055 48.0947 20.8364 48.2411 20.6894C48.4204 20.5094 48.5185 20.2371 48.5047 19.9843C48.4907 19.7265 48.3519 19.4809 48.1502 19.3226C47.9965 19.2019 47.8408 19.1478 47.6482 19.1292Z" fill="#030A06"/>
</svg>
