<svg width="108" height="41" viewBox="0 0 108 41" fill="none" xmlns="http://www.w3.org/2000/svg">
<path d="M17.5506 2.79957e-05C17.337 0.000202787 17.1118 0.00038706 16.9008 0.0255709C14.4473 0.230235 12.1927 1.27247 10.5871 3.17118C8.83974 5.23746 8.41719 7.41449 8.43766 10.045L3.76333 10.0379C3.55396 10.0377 3.33752 10.0317 3.11803 10.0256C2.50817 10.0088 1.87472 9.99122 1.30343 10.0959C0.9589 10.159 0.658272 10.3266 0.41598 10.5788C-0.00822495 11.0204 -0.0185329 11.5782 0.00903202 12.1497C0.0525083 13.0507 0.129893 13.9529 0.207189 14.8541C0.249238 15.3443 0.291297 15.8347 0.327841 16.3242L1.10367 26.3489L1.48116 31.19C1.49975 31.429 1.5146 31.6703 1.52952 31.9127C1.58283 32.779 1.63692 33.6581 1.86565 34.487C2.26078 35.8963 3.0439 37.1661 4.12575 38.1525C5.07124 39.011 6.21406 39.6235 7.45289 39.9351C8.5007 40.188 9.71804 40.1594 10.8615 40.1325C11.2019 40.1245 11.5356 40.1167 11.8565 40.1165L18.1492 40.1145L23.645 40.1169C23.9453 40.1169 24.2543 40.1243 24.5672 40.1317C25.5823 40.1559 26.6404 40.181 27.589 39.9599C28.9235 39.6493 30.274 38.9167 31.2482 37.9507C32.1549 37.0514 32.8792 35.8506 33.1957 34.61C33.4379 33.6609 33.4987 32.6198 33.5576 31.61C33.5766 31.2844 33.5954 30.9619 33.6201 30.647L34.1359 24.0076L34.779 15.8554C34.8102 15.4528 34.8504 15.0458 34.8908 14.638C34.9783 13.7541 35.0664 12.8635 35.0644 11.9899C35.0634 11.4526 34.9497 10.9513 34.5647 10.5523C34.2997 10.2774 33.8666 10.1431 33.5 10.0833C32.9506 9.99371 32.3481 10.0097 31.7653 10.0252C31.5498 10.0309 31.337 10.0365 31.1306 10.0367C29.6605 10.0339 28.1899 10.0391 26.7198 10.0522L26.6566 10.0532C26.6911 7.23608 26.064 4.81875 24.0388 2.75845C22.3465 1.00504 20.0179 0.0102089 17.5814 0L17.5506 2.79957e-05ZM26.4597 16.0686L26.539 16.0732C26.5411 16.0785 26.543 16.0835 26.5449 16.0882C26.5459 16.0906 26.5469 16.093 26.5478 16.0952C26.5513 16.1036 26.5544 16.1109 26.5571 16.1172L26.5605 16.1248C26.575 16.1577 26.5776 16.1638 26.5769 16.2168C26.5516 19.6711 25.627 24.1184 23.1754 26.6482C20.9051 28.991 17.3796 30.1405 14.1646 30.2042C15.6621 27.3877 18.0685 24.7166 20.5507 22.7328C20.9346 22.4262 21.3364 22.1491 21.7386 21.8718C21.9975 21.6933 22.2565 21.5147 22.5108 21.3282C22.7578 21.1469 23.0903 20.901 23.1253 20.5706C23.1574 20.2662 22.9955 20.03 22.805 19.8126C22.5381 19.6578 22.3426 19.5933 22.0378 19.6827C21.6051 19.8097 21.169 20.1299 20.7755 20.4188C20.6713 20.4954 20.5699 20.5698 20.4725 20.6378C17.2897 22.8915 14.6451 25.8214 12.728 29.2174C12.6633 26.4544 13.2925 24.1399 14.987 21.9175C17.5299 18.5823 22.3971 16.6221 26.4597 16.0686ZM1.75276 11.7682L33.3299 11.7677C33.2178 12.8312 33.1452 13.9045 33.0727 14.976C33.0323 15.5729 32.992 16.1699 32.9448 16.7642L32.0946 27.4188L31.7766 31.3451C31.7625 31.5155 31.7496 31.6869 31.7366 31.8586C31.6856 32.5359 31.6341 33.2195 31.5034 33.8827C31.3693 34.5633 31.1087 35.1549 30.7557 35.7485C30.6196 35.9551 30.4718 36.1539 30.3134 36.344C29.398 37.4378 27.8953 38.2526 26.468 38.3605C25.6908 38.4192 24.8911 38.4045 24.0989 38.3899C23.7561 38.3836 23.4145 38.3773 23.0767 38.3771L16.5255 38.3751L11.3123 38.3775C11.0609 38.3777 10.805 38.3829 10.5471 38.3883C9.75651 38.4046 8.94698 38.4214 8.1871 38.2905C7.19041 38.1165 6.25897 37.6775 5.49092 37.0193C4.57091 36.2434 3.91063 35.2045 3.59911 34.0422C3.38601 33.2717 3.33287 32.4508 3.28069 31.6447C3.26758 31.4423 3.25454 31.2408 3.23903 31.0412L2.92897 27.0463L1.75276 11.7682ZM27.1609 14.2173L27.1374 14.2198C22.3441 14.7743 16.8872 16.7458 13.7889 20.6287C11.7975 23.1242 10.7095 26.3701 11.0688 29.5664C11.1477 30.2683 11.3067 30.9391 11.5358 31.6066C11.5099 31.6729 11.4783 31.7524 11.4423 31.8428C11.0489 32.8315 10.1346 35.1296 10.4526 35.8093C10.5445 36.0057 10.7319 36.1374 10.9351 36.2021C11.0188 36.2283 11.1031 36.2434 11.1902 36.2536C11.4587 36.2094 11.707 36.1539 11.8686 35.9138C12.0422 35.6553 12.2199 35.0347 12.3719 34.5039C12.4443 34.251 12.511 34.0184 12.5685 33.855C12.7655 33.2956 12.9891 32.7453 13.2124 32.1959L13.215 32.1894C13.2411 32.1251 13.2673 32.0608 13.2934 31.9965C17.246 32.0081 21.4676 30.7709 24.3271 27.9496C27.5249 24.7937 28.3304 19.7049 28.3367 15.3984C28.3372 15.0589 28.3139 14.656 28.0655 14.3963C27.9128 14.2365 27.6829 14.1884 27.4695 14.1931C27.3665 14.1954 27.2635 14.2064 27.1609 14.2173ZM17.1663 1.72711C17.3194 1.71763 17.473 1.70907 17.6261 1.71014C19.5036 1.72331 21.3835 2.56302 22.7029 3.88619C24.4992 5.68787 24.8667 7.59976 24.8706 10.0452L17.9917 10.0414L10.2512 10.0511C10.192 7.94905 10.5305 6.02914 11.9095 4.36937C13.2343 2.77488 15.1251 1.90946 17.1663 1.72711Z" fill="#030A06"/>
<path d="M26.539 16.0731L26.4598 16.0685C22.3971 16.622 17.5299 18.5822 14.987 21.9175C13.2925 24.1399 12.6634 26.4544 12.728 29.2173C14.6451 25.8213 17.2898 22.8915 20.4725 20.6377C20.5699 20.5698 20.6713 20.4953 20.7755 20.4188C21.1691 20.1299 21.6052 19.8097 22.0379 19.6827C22.3427 19.5932 22.5381 19.6578 22.805 19.8125C22.9956 20.0299 23.1575 20.2661 23.1254 20.5705C23.0904 20.901 22.7578 21.1469 22.5109 21.3281C22.2565 21.5147 21.9975 21.6933 21.7386 21.8718C21.3365 22.1491 20.9346 22.4262 20.5508 22.7327C18.0686 24.7165 15.6622 27.3876 14.1647 30.2042C17.3797 30.1405 20.9052 28.9909 23.1754 26.6482C25.627 24.1184 26.5517 19.671 26.5769 16.2167C26.5777 16.1637 26.575 16.1577 26.5605 16.1247C26.557 16.1168 26.5528 16.1072 26.5478 16.0952C26.5452 16.0886 26.5422 16.0813 26.539 16.0731ZM27.1375 14.2197L27.161 14.2172C27.2636 14.2063 27.3665 14.1953 27.4695 14.1931C27.6829 14.1883 27.9129 14.2365 28.0655 14.3962C28.3139 14.6559 28.3373 15.0588 28.3368 15.3984C28.3305 19.7048 27.5249 24.7937 24.3271 27.9495C21.4676 30.7709 17.246 32.0081 13.2934 31.9964C13.2673 32.0607 13.2412 32.1251 13.2151 32.1894L13.2124 32.1958C12.9891 32.7453 12.7655 33.2955 12.5686 33.8549C12.511 34.0184 12.4444 34.2509 12.372 34.5038C12.22 35.0346 12.0422 35.6553 11.8686 35.9137C11.707 36.1539 11.4588 36.2093 11.1902 36.2535C11.1031 36.2433 11.0188 36.2283 10.9351 36.202C10.732 36.1374 10.5446 36.0056 10.4526 35.8092C10.1346 35.1295 11.049 32.8314 11.4423 31.8427C11.4783 31.7523 11.51 31.6728 11.5359 31.6065C11.3068 30.9391 11.1478 30.2682 11.0689 29.5663C10.7095 26.37 11.7975 23.1241 13.7889 20.6286C16.8872 16.7458 22.3442 14.7742 27.1375 14.2197Z" fill="#030A06"/>
<path d="M27.161 14.2172L27.1375 14.2197C22.3442 14.7742 16.8873 16.7458 13.789 20.6286C11.7976 23.1241 10.7096 26.37 11.069 29.5663C11.1479 30.2682 11.3068 30.9391 11.5359 31.6065C11.51 31.6728 11.4784 31.7523 11.4424 31.8427C11.049 32.8314 10.1347 35.1295 10.4527 35.8092C10.5447 36.0056 10.732 36.1374 10.9352 36.202C11.0189 36.2283 11.1032 36.2433 11.1903 36.2535C11.4588 36.2093 11.7071 36.1539 11.8687 35.9137C12.0423 35.6553 12.2199 35.035 12.3719 34.5041C12.4444 34.2511 12.511 34.0184 12.5686 33.8549C12.7656 33.2955 12.9892 32.7453 13.2125 32.1958C13.2134 32.1937 13.2142 32.1915 13.2151 32.1894C13.2413 32.1251 13.2674 32.0607 13.2935 31.9964C17.2461 32.0081 21.4677 30.7709 24.3272 27.9495C27.525 24.7937 28.3305 19.7048 28.3368 15.3984C28.3373 15.0588 28.314 14.6559 28.0656 14.3962C27.9129 14.2365 27.683 14.1883 27.4696 14.1931C27.3666 14.1953 27.2636 14.2063 27.161 14.2172ZM26.4598 16.0685L26.5391 16.0731C26.5423 16.0813 26.5452 16.0886 26.5479 16.0952C26.5529 16.1073 26.5571 16.1168 26.5606 16.1247C26.5751 16.1577 26.5777 16.1637 26.577 16.2167C26.5517 19.671 25.6271 24.1184 23.1755 26.6482C20.9052 28.9909 17.3798 30.1405 14.1647 30.2042C15.6622 27.3876 18.0686 24.7165 20.5508 22.7327C20.9347 22.4262 21.3366 22.1491 21.7387 21.8718C21.9976 21.6933 22.2566 21.5147 22.5109 21.3281C22.7579 21.1469 23.0904 20.901 23.1254 20.5705C23.1575 20.2661 22.9956 20.0299 22.8051 19.8125C22.5382 19.6578 22.3427 19.5932 22.0379 19.6827C21.6052 19.8097 21.1691 20.1299 20.7756 20.4188C20.6714 20.4953 20.57 20.5698 20.4726 20.6377C17.2898 22.8915 14.6452 25.8213 12.7281 29.2173C12.6634 26.4544 13.2926 24.1399 14.9871 21.9175C17.53 18.5822 22.3972 16.622 26.4598 16.0685Z" fill="#030A06"/>
<path d="M88.8805 25.9231C88.7607 22.5279 85.9116 19.873 82.5169 19.9923C79.1211 20.1111 76.4651 22.9612 76.585 26.3565C76.7048 29.7523 79.555 32.4077 82.9502 32.2878C86.3455 32.1674 89.0004 29.3178 88.8805 25.9231ZM82.7306 21.838C83.721 21.8781 84.5237 22.1162 85.2787 22.7849C86.1785 23.5811 86.6801 24.7315 86.7458 25.9231C86.8119 27.1158 86.4366 28.3247 85.6247 29.2131C84.8827 30.0251 83.9574 30.3884 82.8732 30.4427C81.8839 30.4324 81.0677 30.2783 80.2872 29.6291C79.3755 28.8709 78.8602 27.7482 78.7631 26.5767C78.6628 25.3585 78.9817 24.0991 79.7904 23.1646C80.5926 22.2382 81.5401 21.9193 82.7306 21.838Z" fill="#030A06"/>
<path d="M71.7837 25.4138C71.379 22.0376 68.3112 19.6311 64.936 20.0422C61.5697 20.4522 59.171 23.5101 59.5746 26.8772C59.9782 30.2442 63.0317 32.6485 66.3994 32.2515C69.7761 31.8529 72.1884 28.7896 71.7837 25.4138ZM65.1329 21.8879C66.1178 21.8076 67.0101 21.9112 67.8417 22.4834C68.7757 23.1256 69.3629 24.1176 69.5572 25.2256C69.7776 26.4839 69.5703 27.8296 68.8133 28.878C68.1506 29.7962 67.3225 30.2518 66.2193 30.4275C65.2116 30.4791 64.3213 30.4178 63.4726 29.8174C62.5573 29.1725 61.9405 28.1859 61.7618 27.0806C61.5561 25.8613 61.8025 24.4582 62.5304 23.4439C63.17 22.5528 64.063 22.0587 65.1329 21.8879Z" fill="#030A06"/>
<path d="M101.777 19.9847C101.746 19.9858 101.717 19.988 101.686 19.9918C100.138 20.1745 98.7432 20.9241 97.7697 22.1531C96.6589 23.5562 96.2776 25.3352 96.4967 27.0947C96.6762 28.6399 97.467 30.049 98.6922 31.0084C100.144 32.136 101.984 32.4224 103.777 32.1772C104.815 32.0351 106.374 31.5383 107.037 30.6749C107.224 30.4324 107.318 30.1363 107.275 29.8304C107.244 29.6156 107.15 29.41 106.973 29.2783C106.77 29.1269 106.499 29.108 106.257 29.1551C105.922 29.2205 105.621 29.428 105.336 29.6248C105.276 29.6662 105.216 29.7072 105.157 29.7463C103.905 30.3972 102.516 30.7031 101.138 30.2567C100.158 29.934 99.3485 29.2305 98.8929 28.3042C98.6554 27.8307 98.5371 27.3279 98.4319 26.8121H104.342C104.588 26.8124 104.852 26.8209 105.123 26.8296C105.824 26.852 106.574 26.8761 107.193 26.7654C107.369 26.734 107.537 26.6396 107.665 26.5149C107.956 26.2318 108.007 25.8309 107.999 25.4442C107.966 23.9636 107.27 22.5029 106.193 21.5012C104.95 20.3443 103.449 19.9093 101.777 19.9847ZM101.959 21.8347C102.856 21.7295 103.761 21.9584 104.5 22.4785C105.383 23.1066 105.848 23.9983 106.034 25.0478C105.285 25.0568 104.534 25.0548 103.784 25.0527C103.41 25.0517 103.035 25.0507 102.66 25.051L98.5035 25.0564C98.6939 24.417 98.9146 23.8361 99.3236 23.3002C99.9825 22.4373 100.895 21.9747 101.959 21.8347Z" fill="#030A06"/>
<path d="M68.8598 15.5894C71.0782 15.5368 73.3084 15.5856 75.5283 15.5818C76.7926 15.5796 78.4078 15.4771 79.6352 15.6035C79.8326 15.6241 79.9899 15.68 80.1401 15.8112C80.3538 15.9978 80.4959 16.2793 80.5035 16.5646C80.51 16.8222 80.3522 17.1178 80.1662 17.2908C80.0241 17.4221 79.8548 17.4747 79.6677 17.5051C79.1568 17.5875 78.5927 17.5392 78.0742 17.5387L75.3201 17.5338L75.319 27.7554C75.3228 28.6166 75.4318 30.4954 75.3022 31.2282C75.2615 31.4581 75.178 31.6876 75.0196 31.8638C74.8493 32.0531 74.6145 32.1486 74.3617 32.154C74.097 32.16 73.8389 32.1019 73.6479 31.9094C73.4234 31.6843 73.341 31.3529 73.3133 31.0454C73.2623 30.4781 73.309 29.8777 73.3155 29.3076C73.3252 28.4642 73.3176 27.6203 73.3171 26.7769L73.3236 17.5322C72.4075 17.5365 69.2369 17.6824 68.5877 17.3879C68.3505 17.2805 68.2017 17.1146 68.1156 16.8678C68.0238 16.6053 68.0656 16.3254 68.1982 16.0846C68.3535 15.8026 68.5607 15.6816 68.8598 15.5894Z" fill="#030A06"/>
<path d="M54.3495 19.9929C55.1735 19.9462 55.9787 19.9988 56.7788 20.2131C57.6236 20.4393 58.9157 20.9377 59.3524 21.7393C59.4725 21.9601 59.5352 22.2242 59.4504 22.4683C59.3638 22.7172 59.1273 22.9076 58.8891 23.0052C58.1942 23.29 57.3243 22.3327 56.6707 22.0864C55.6077 21.6856 54.3293 21.7079 53.2952 22.1906C52.345 22.6342 51.6619 23.4744 51.3082 24.4501C50.8976 25.5826 50.8629 27.0594 51.3842 28.1632C51.8675 29.1861 52.7567 29.9009 53.8114 30.2735C55.0184 30.7004 56.276 30.4731 57.4039 29.9324C57.7534 29.7431 58.0708 29.4909 58.4691 29.4085C58.6748 29.3662 58.878 29.3884 59.0535 29.5099C59.2694 29.6596 59.444 29.9557 59.4727 30.2171C59.4996 30.4623 59.4043 30.6879 59.2522 30.8761C58.5923 31.694 57.1235 32.1051 56.1239 32.2277C54.389 32.4403 52.5819 32.0927 51.1935 30.9857C49.8884 29.9655 49.0579 28.4555 48.8955 26.8072C48.7236 25.1649 49.2051 23.521 50.2361 22.2313C51.2811 20.9464 52.7071 20.1686 54.3495 19.9929Z" fill="#030A06"/>
<path d="M91.4029 16.8889C91.4377 16.8873 91.4718 16.8856 91.506 16.8846C91.8135 16.8748 92.1227 16.9572 92.3402 17.1839C92.8587 17.7258 92.6526 19.5514 92.6466 20.2988C93.3528 20.3031 95.071 20.0835 95.6004 20.5542C95.7918 20.7251 95.8699 20.9616 95.8705 21.2138C95.8715 21.4584 95.8081 21.6927 95.6264 21.8652C95.1317 22.3338 93.3457 22.1494 92.6455 22.145C92.652 23.6463 92.4492 28.2738 92.9118 29.4128C93.6597 31.2547 95.2809 29.6346 96.2056 30.0702C96.4036 30.1635 96.5658 30.3603 96.639 30.5654C96.7431 30.8572 96.6504 31.118 96.5305 31.386C96.5099 31.4087 96.4893 31.431 96.4687 31.4532C95.9101 32.0352 94.8606 32.1751 94.0899 32.186C93.1955 32.199 92.3499 32.0471 91.6893 31.3854C91.212 30.9071 90.9153 30.2508 90.77 29.5978C90.5454 28.5889 90.6382 27.4722 90.6387 26.4433L90.6414 22.1467C90.0991 22.1461 89.5562 22.1423 89.0138 22.1336C88.9243 22.0778 88.837 22.0203 88.7583 21.9492C88.5441 21.7561 88.4465 21.4681 88.4389 21.1845C88.4324 20.9469 88.505 20.7126 88.6824 20.5483C89.1206 20.1426 90.0844 20.2879 90.6414 20.2977C90.6398 19.5161 90.4684 18.1147 90.7635 17.4269C90.8947 17.1216 91.109 17.0109 91.4029 16.8889Z" fill="#030A06"/>
<path fill-rule="evenodd" clip-rule="evenodd" d="M48.372 16.5962C47.4375 16.5044 42.8634 16.5369 41.2765 16.5603C40.9847 16.5645 40.7141 16.5845 40.4765 16.602C40.2743 16.6168 40.0959 16.63 39.9487 16.6302C39.9487 16.6302 39.3172 16.7784 39.1124 17.0629C38.9785 17.2492 38.9327 17.4856 38.9008 17.7081C38.7313 18.8897 38.6321 20.0953 38.5332 21.2969C38.4811 21.9293 38.4292 22.5606 38.3671 23.1867L37.7653 29.2608C37.7493 29.4231 37.7215 29.6448 37.69 29.8964C37.5881 30.71 37.4469 31.8369 37.5382 32.2855C37.5887 32.5341 37.7205 32.7394 37.9403 32.869C38.1572 32.9969 38.4029 33.0696 38.6499 33.1115L38.6521 33.1115C39.1624 33.1104 39.932 33.1184 40.7918 33.1273C42.5746 33.1457 47.1078 33.1682 48.1619 33.1229C48.3721 33.1136 48.5949 33.0957 48.793 33.0209C49.0591 32.92 49.2777 32.7275 49.383 32.4595C49.4889 32.19 49.4655 31.8879 49.3453 31.6275C49.2245 31.365 49.0612 31.2251 48.7874 31.1372H39.6759C39.828 29.7957 39.9639 28.4527 40.0837 27.108L40.1913 26.015L40.2017 25.9066C40.2729 25.9075 40.3666 25.9089 40.478 25.9106C41.406 25.9246 45.9229 25.9571 46.4984 25.8713C46.7096 25.8399 46.9069 25.7867 47.0614 25.6311C47.2615 25.4293 47.3446 25.1505 47.328 24.8707C47.314 24.6331 47.2089 24.3744 47.0284 24.2144C46.9078 24.1081 46.7585 24.0392 46.5991 24.017C46.0612 23.9387 42.0455 23.9599 41.0317 23.9729C40.7598 23.9764 40.5338 23.9793 40.3879 23.9795L40.8497 18.5303H45.7667C46.0174 18.5305 46.2786 18.5389 46.5437 18.5473C47.1855 18.5679 47.8505 18.5892 48.4473 18.4967C48.6595 18.4642 48.8416 18.3915 48.9955 18.2369C49.1841 18.0476 49.2872 17.7612 49.2728 17.4955C49.258 17.2243 49.112 16.9661 48.8999 16.7996C48.7383 16.6727 48.5746 16.6158 48.372 16.5962Z" fill="#030A06"/>
</svg>
